<?xml version="1.0" standalone="no"?>
<!DOCTYPE svg PUBLIC "-//W3C//DTD SVG 20010904//EN"
 "http://www.w3.org/TR/2001/REC-SVG-20010904/DTD/svg10.dtd">
<svg version="1.0" xmlns="http://www.w3.org/2000/svg"
 width="512.000000pt" height="512.000000pt" viewBox="0 0 512.000000 512.000000"
 preserveAspectRatio="xMidYMid meet">
<metadata>
Created by potrace 1.14, written by Peter Selinger 2001-2017
</metadata>
<g transform="translate(0.000000,512.000000) scale(0.100000,-0.100000)"
fill="#000000" stroke="none">
<path d="M950 5113 c-344 -59 -597 -304 -671 -648 -10 -48 -12 -435 -12 -1870
0 -995 1 -1835 3 -1865 4 -55 28 -160 49 -215 85 -213 253 -381 459 -459 135
-51 164 -54 590 -55 446 -2 453 -1 513 66 39 45 51 77 51 134 0 84 -62 167
-140 188 -21 6 -198 11 -410 11 -292 1 -384 4 -421 16 -136 40 -229 131 -278
272 -15 43 -17 201 -17 1837 -1 985 2 1817 6 1850 20 156 141 290 297 331 83
21 2585 21 2657 -1 139 -41 232 -130 280 -270 16 -45 18 -111 19 -715 1 -504
4 -674 14 -702 6 -20 30 -52 51 -72 103 -93 247 -66 313 59 21 40 21 48 21
715 0 596 -2 685 -17 756 -42 201 -154 376 -314 490 -66 48 -183 106 -248 123
-22 5 -53 14 -70 18 -31 8 -2680 14 -2725 6z"/>
<path d="M1184 3901 c-52 -24 -101 -83 -112 -137 -20 -92 22 -178 108 -221
l44 -23 1071 0 c1019 0 1072 1 1111 19 120 54 154 209 69 309 -66 77 12 72
-1183 72 -1014 -1 -1069 -2 -1108 -19z"/>
<path d="M1185 3101 c-43 -19 -90 -68 -107 -110 -16 -39 -12 -114 7 -155 22
-47 75 -92 122 -105 26 -7 389 -11 1098 -11 1007 0 1062 1 1100 19 43 19 90
68 107 110 26 65 4 163 -49 213 -64 61 -1 58 -1170 58 -1015 0 -1070 -1 -1108
-19z"/>
<path d="M4127 2385 c-70 -15 -124 -38 -197 -83 -68 -42 -1203 -1170 -1230
-1223 -11 -20 -33 -83 -50 -140 -68 -223 -100 -329 -134 -444 -20 -66 -46
-149 -57 -185 -12 -35 -22 -85 -22 -110 0 -117 106 -211 220 -196 46 7 155 36
776 210 48 13 100 32 115 42 57 37 1167 1155 1204 1212 73 114 101 208 100
340 -3 269 -174 489 -447 574 -49 15 -215 17 -278 3z m220 -409 c35 -18 80
-68 95 -105 15 -39 12 -114 -6 -153 -9 -19 -31 -49 -49 -66 l-32 -31 -139 139
c-126 126 -137 141 -125 157 59 75 174 102 256 59z m-414 -496 l141 -140 -369
-370 -370 -369 -130 -36 c-71 -20 -137 -38 -146 -40 -8 -2 -39 -10 -69 -19
-29 -9 -54 -15 -55 -13 -1 1 24 89 57 196 l59 194 367 367 c202 202 368 368
370 369 2 0 67 -62 145 -139z"/>
<path d="M1196 2305 c-101 -36 -152 -150 -117 -258 15 -45 78 -102 128 -116
25 -7 258 -11 693 -11 614 1 658 2 695 19 54 25 93 69 109 122 13 43 13 52 1
117 -8 42 -60 101 -110 123 -37 17 -85 18 -700 18 -537 0 -667 -2 -699 -14z"/>
</g>
</svg>
